# xmcd CD database file
#
# Track frame offsets:
#	150
#	20548
#	37900
#	56792
#	72269
#	90144
#	104275
#	123596
#	147872
#	169891
#	195576
#	215732
#
# Disc length: 3095 seconds
#
# Revision: 0
# Processed by: cddbd v1.5.2PL0 Copyright (c) Steve Scherf et al.
# Submitted via: CDex 1.51
#
DISCID=a70c150c
DTITLE=Roger Girke and the Funky Twisters - We Got The Funky Blues
DYEAR=2001
DGENRE=Blues
TTITLE0=I Just Want To Make Love To You
TTITLE1=Something You Got
TTITLE2=Big Mamou
TTITLE3=You Give Me Nothing But The Blues
TTITLE4=Ain't Doing Too Bad
TTITLE5=The Things That I Used To Do
TTITLE6=Wadin'
TTITLE7=I Left The Door Wide Open
TTITLE8=Hey Pock A-Way
TTITLE9=She's So Fine
TTITLE10=Sugarcoated Love
TTITLE11=Take Your Funky Butt Home
EXTD=YEAR: 2001
EXTT0=
EXTT1=
EXTT2=
EXTT3=
EXTT4=
EXTT5=
EXTT6=
EXTT7=
EXTT8=
EXTT9=
EXTT10=
EXTT11=
PLAYORDER=
